<svg width="24" height="24" viewBox="0 0 24 24" fill="none" xmlns="http://www.w3.org/2000/svg">
<path d="M14 4H9.99998V9.8252C9.99992 10.3998 9.83418 10.9602 9.52634 11.4414L9.38572 11.6426L4.24216 18.3936C3.74064 19.0518 4.21052 20 5.03806 20H18.9619C19.7374 19.9997 20.1983 19.1669 19.8398 18.5205L19.7568 18.3936L14.6133 11.6426C14.2154 11.1202 14 10.4818 14 9.8252V4ZM16 9.8252C16 10.044 16.0716 10.2566 16.2041 10.4307L21.3476 17.1816L21.4804 17.3691C22.7635 19.3312 21.3667 21.9997 18.9619 22H5.03806C2.55544 22 1.14677 19.1564 2.65134 17.1816L7.7949 10.4307L7.88279 10.2939C7.95907 10.1503 7.99993 9.98947 7.99998 9.8252V4H5.99998V2H18V4H16V9.8252Z" fill="#F1F1F1"/>
<path d="M3 18.5L3.5 20.5H20L21 18.5L15 10H9L3 18.5Z" fill="#F1F1F1"/>
</svg>
