<svg width="24" height="24" viewBox="0 0 24 24" fill="none" xmlns="http://www.w3.org/2000/svg">
<path d="M11.6717 2.09545C11.9693 1.96639 12.3144 1.98719 12.5961 2.15931L21.6499 7.69219C21.949 7.87493 22.1313 8.20036 22.1313 8.55081C22.1313 8.90126 21.949 9.22669 21.6499 9.40943L12.5961 14.9423C12.2741 15.1391 11.8689 15.1391 11.5469 14.9423L2.4931 9.40943C2.19407 9.22669 2.01172 8.90126 2.01172 8.55081C2.01172 8.20036 2.19406 7.87493 2.4931 7.69219L11.5469 2.15931L11.6717 2.09545Z" fill="#F1F1F1"/>
<path d="M22.1313 17.1213L12.5991 22.9882C12.2757 23.1872 11.8673 23.1872 11.544 22.9882L2.01172 17.1213V14.7586L12.0715 20.9497L22.1313 14.7586V17.1213ZM22.1313 13.0974L12.5991 18.9643C12.2757 19.1632 11.8673 19.1632 11.544 18.9643L2.01172 13.0974V10.7347L12.0715 16.9258L22.1313 10.7347V13.0974Z" fill="#F1F1F1"/>
</svg>
