<svg width="24" height="24" viewBox="0 0 24 24" fill="none" xmlns="http://www.w3.org/2000/svg">
<path d="M7 11.0003H5C4.44772 11.0003 4 11.448 4 12.0003V19.0003C4.00013 19.5524 4.4478 20.0003 5 20.0003H19C19.5522 20.0003 19.9999 19.5524 20 19.0003V12.0003C20 11.448 19.5523 11.0003 19 11.0003H17V9.00025H19C20.6569 9.00025 22 10.3434 22 12.0003V19.0003C21.9999 20.657 20.6568 22.0003 19 22.0003H5C3.34323 22.0003 2.00013 20.657 2 19.0003V12.0003C2 10.3434 3.34315 9.00025 5 9.00025H7V11.0003Z" fill="#F1F1F1"/>
<path d="M11.3691 2.22486C11.7619 1.90451 12.3409 1.92711 12.707 2.29322L16.4141 6.00025L15 7.41432L13 5.41432V16.0003H11V5.41432L9 7.41432L7.58594 6.00025L11.293 2.29322L11.3691 2.22486Z" fill="#F1F1F1"/>
</svg>
