<svg width="32" height="32" viewBox="0 0 32 32" fill="none" xmlns="http://www.w3.org/2000/svg">
<path d="M16 6C18.7614 6 21 8.23858 21 11C21 13.7614 18.7614 16 16 16C13.2386 16 11 13.7614 11 11C11 8.23858 13.2386 6 16 6Z" fill="#F1F1F1"/>
<path fill-rule="evenodd" clip-rule="evenodd" d="M16 2C23.732 2 30 8.26801 30 16C30 23.732 23.732 30 16 30C8.26801 30 2 23.732 2 16C2 8.26801 8.26801 2 16 2ZM16 4C9.37258 4 4 9.37258 4 16C4 19.2516 5.29528 22.1992 7.39551 24.3604C8.52357 20.678 11.9491 18 16.001 18C20.0523 18.0004 23.4755 20.6784 24.6035 24.3604C26.704 22.1991 28 19.2518 28 16C28 9.37258 22.6274 4 16 4Z" fill="#F1F1F1"/>
</svg>
