<svg width="18" height="18" viewBox="0 0 18 18" fill="none" xmlns="http://www.w3.org/2000/svg">
<path d="M9.00008 5.99991V8.99991M9.00008 11.9999H9.00758M7.71758 2.14491L1.36508 12.7499C1.2341 12.9767 1.1648 13.2339 1.16407 13.4958C1.16334 13.7577 1.23119 14.0153 1.3609 14.2428C1.4906 14.4704 1.67762 14.66 1.90336 14.7928C2.12909 14.9256 2.38568 14.997 2.64758 14.9999H15.3526C15.6145 14.997 15.8711 14.9256 16.0968 14.7928C16.3225 14.66 16.5096 14.4704 16.6393 14.2428C16.769 14.0153 16.8368 13.7577 16.8361 13.4958C16.8354 13.2339 16.7661 12.9767 16.6351 12.7499L10.2826 2.14491C10.1489 1.92449 9.96062 1.74225 9.73597 1.61577C9.51133 1.4893 9.25788 1.42285 9.00008 1.42285C8.74228 1.42285 8.48882 1.4893 8.26418 1.61577C8.03954 1.74225 7.85128 1.92449 7.71758 2.14491Z" stroke="#FF5545" stroke-width="1.5" stroke-linecap="round" stroke-linejoin="round"/>
</svg>
