<svg width="32" height="32" viewBox="0 0 32 32" fill="none" xmlns="http://www.w3.org/2000/svg">
<path d="M11 22H7V20H11V22Z" fill="#F1F1F1"/>
<path d="M18 22H14V20H18V22Z" fill="#F1F1F1"/>
<path d="M25 22H21V20H25V22Z" fill="#F1F1F1"/>
<path d="M11 17H7V15H11V17Z" fill="#F1F1F1"/>
<path d="M18 17H14V15H18V17Z" fill="#F1F1F1"/>
<path d="M25 17H21V15H25V17Z" fill="#F1F1F1"/>
<path fill-rule="evenodd" clip-rule="evenodd" d="M11 5H21V2H23V5H25C27.7614 5 30 7.23858 30 10V22C30 24.7614 27.7614 27 25 27H7C4.23858 27 2 24.7614 2 22V10C2 7.23858 4.23858 5 7 5H9V2H11V5ZM4 22C4 23.6569 5.34315 25 7 25H25C26.6569 25 28 23.6569 28 22V12H4V22ZM7 7C5.34315 7 4 8.34315 4 10H28C28 8.34315 26.6569 7 25 7H7Z" fill="#F1F1F1"/>
</svg>
