<svg width="163" height="57" viewBox="0 0 163 57" fill="none" xmlns="http://www.w3.org/2000/svg">
<path d="M163 30.4512H151.333V19.0109H163V30.4512Z" fill="white"/>
<path d="M127.998 19.0104H139.666V30.4507H116.331V0H127.998V19.0104Z" fill="white"/>
<path d="M91.6359 0C98.832 0 104.666 5.76206 104.666 12.8699C104.666 16.7969 102.884 20.3124 100.077 22.6731L104.623 30.4507H77.4138V0H91.6359Z" fill="white"/>
<path d="M56.1244 9.50545H65.7468V20.9453H56.1244V30.4507H44.5424V20.9453H34.918V9.50545H44.5424V0L56.1244 0V9.50545Z" fill="white"/>
<path d="M23.2505 9.50545H11.9225V20.9453H23.2505V30.4507H15.4142C6.90112 30.4506 0 23.6337 0 15.2251C0.000160352 6.81661 6.90122 8.3331e-05 15.4142 0H23.2505V9.50545Z" fill="white"/>
<path d="M7.39905 44.7685H9.12685V44.85L5.26375 55.1679H7.74135V56.586H1.07464V55.1679H3.50335L4.46505 52.5925H3.68265L0.748645 44.85V44.7685H2.55795L4.92145 51.1255H5.01925L7.39905 44.7685ZM15.8757 53.2282C14.5282 53.2282 13.5611 52.9348 12.9743 52.348C12.3983 51.7612 12.1104 50.7941 12.1104 49.4466V48.3219C12.1104 46.9744 12.3983 46.0073 12.9743 45.4205C13.5611 44.8337 14.5282 44.5403 15.8757 44.5403C17.2231 44.5403 18.1848 44.8337 18.7608 45.4205C19.3476 46.0073 19.641 46.9744 19.641 48.3219V49.4466C19.641 50.7941 19.3476 51.7612 18.7608 52.348C18.1848 52.9348 17.2231 53.2282 15.8757 53.2282ZM15.8757 51.6634C16.6037 51.6634 17.2557 51.6199 17.8317 51.533V46.2355C17.2557 46.1486 16.6037 46.1051 15.8757 46.1051C15.1476 46.1051 14.4956 46.1486 13.9197 46.2355V51.533C14.4956 51.6199 15.1476 51.6634 15.8757 51.6634ZM28.6229 44.7685H30.3833V53H29.2749L28.7859 51.9079C27.0472 52.7881 25.7378 53.2282 24.8576 53.2282C24.2817 53.2282 23.8524 53.0706 23.5699 52.7555C23.2982 52.4295 23.1624 51.9351 23.1624 51.2722V44.7685H24.9228V51.7449C25.7052 51.6471 26.9386 51.1853 28.6229 50.3594V44.7685ZM41.4842 44.5403C41.6581 44.5403 41.8537 44.5566 42.071 44.5892V46.2029C41.9732 46.192 41.8374 46.1866 41.6635 46.1866C41.1419 46.1866 40.5877 46.3496 40.0009 46.6756C39.425 47.0016 38.6752 47.5395 37.7515 48.2893V51.5493H41.5168V53H33.7743V51.5493H35.9911V46.2192H33.7743V44.7685H37.2951L37.67 46.5289C38.4741 45.8443 39.1805 45.3444 39.789 45.0293C40.3975 44.7033 40.9626 44.5403 41.4842 44.5403ZM63.36 44.5403C63.5339 44.5403 63.7295 44.5566 63.9468 44.5892V46.2029C63.849 46.192 63.7132 46.1866 63.5393 46.1866C63.0177 46.1866 62.4635 46.3496 61.8767 46.6756C61.3008 47.0016 60.551 47.5395 59.6273 48.2893V51.5493H63.3926V53H55.6501V51.5493H57.8669V46.2192H55.6501V44.7685H59.1709L59.5458 46.5289C60.35 45.8443 61.0563 45.3444 61.6648 45.0293C62.2734 44.7033 62.8384 44.5403 63.36 44.5403ZM73.7764 51.6145H74.9663V53H72.668L72.3583 52.2991L69.6036 53.0489C69.1472 53.1684 68.7777 53.2282 68.4952 53.2282C67.3976 53.2282 66.7348 52.5599 66.5066 51.2233C66.4631 50.9734 66.4414 50.7071 66.4414 50.4246C66.4414 49.7943 66.6261 49.3162 66.9956 48.9902C67.365 48.6642 67.979 48.4143 68.8375 48.2404L72.016 47.621V45.991C71.4183 45.991 70.6902 46.0236 69.8318 46.0888C68.9733 46.154 68.1257 46.2409 67.289 46.3496L67.3868 44.7685C69.3645 44.6164 70.6848 44.5403 71.3477 44.5403C72.2387 44.5403 72.8636 44.7305 73.2222 45.1108C73.5916 45.4911 73.7764 46.1486 73.7764 47.0831V51.6145ZM68.0551 49.8704L68.4137 51.8753L72.016 51.0114V49.088L68.0551 49.8704ZM82.6605 53H80.2481L77.3141 44.85V44.7685H79.1397L81.4706 51.6471H81.5521L83.9482 44.7685H85.6923V44.85L82.6605 53ZM96.239 49.5444H90.5177V51.7775C91.5609 51.7666 92.452 51.7395 93.1909 51.696C93.9407 51.6417 94.8209 51.5493 95.8315 51.4189L95.7337 53C95.1143 53.0652 94.4623 53.1195 93.7777 53.163C93.104 53.2065 92.5498 53.2282 92.1151 53.2282C91.2458 53.2282 90.5666 53.1087 90.0776 52.8696C89.5886 52.6197 89.2354 52.2285 89.0181 51.696C88.8116 51.1527 88.7084 50.4192 88.7084 49.4955V48.3056C88.7084 46.969 88.9964 46.0073 89.5723 45.4205C90.1591 44.8337 91.1154 44.5403 92.4411 44.5403C93.7994 44.5403 94.772 44.8337 95.3588 45.4205C95.9456 45.9964 96.239 46.9581 96.239 48.3056V49.5444ZM94.4297 46.2355C93.8755 46.1486 93.2126 46.1051 92.4411 46.1051C91.7674 46.1051 91.1262 46.1486 90.5177 46.2355V48.0937H94.4297V46.2355ZM116.338 44.5403C116.903 44.5403 117.327 44.7305 117.61 45.1108C117.903 45.4803 118.05 46.0834 118.05 46.9201V50.0008C118.05 51.0875 117.832 51.859 117.398 52.3154C116.974 52.7718 116.246 53 115.213 53H110.731V41.264H112.491V45.7628C113.219 45.4042 113.92 45.1108 114.594 44.8826C115.268 44.6544 115.849 44.5403 116.338 44.5403ZM112.491 51.5493H116.289V46.0236C115.833 46.0453 115.262 46.1757 114.578 46.4148C113.904 46.6539 113.209 46.9581 112.491 47.3276V51.5493ZM127.064 44.7685H128.825V53H127.716L127.227 51.9079C125.488 52.7881 124.179 53.2282 123.299 53.2282C122.723 53.2282 122.294 53.0706 122.011 52.7555C121.739 52.4295 121.604 51.9351 121.604 51.2722V44.7685H123.364V51.7449C124.146 51.6471 125.38 51.1853 127.064 50.3594V44.7685ZM138.018 41.264H139.779V53H138.67L138.149 51.9568C136.432 52.8044 135.106 53.2282 134.172 53.2282C133.607 53.2282 133.177 53.0435 132.884 52.674C132.601 52.3045 132.46 51.7014 132.46 50.8647V47.7677C132.46 46.6919 132.672 45.9258 133.096 45.4694C133.53 45.0021 134.264 44.7685 135.296 44.7685H138.018V41.264ZM134.22 46.2192V51.7612C134.677 51.7286 135.247 51.5928 135.932 51.3537C136.617 51.1146 137.312 50.8104 138.018 50.4409V46.2192H134.22ZM148.956 41.264H150.717V53H149.608L149.087 51.9568C147.37 52.8044 146.044 53.2282 145.11 53.2282C144.544 53.2282 144.115 53.0435 143.822 52.674C143.539 52.3045 143.398 51.7014 143.398 50.8647V47.7677C143.398 46.6919 143.61 45.9258 144.034 45.4694C144.468 45.0021 145.202 44.7685 146.234 44.7685H148.956V41.264ZM145.158 46.2192V51.7612C145.615 51.7286 146.185 51.5928 146.87 51.3537C147.555 51.1146 148.25 50.8104 148.956 50.4409V46.2192H145.158ZM160.53 44.7685H162.258V44.85L158.395 55.1679H160.872V56.586H154.206V55.1679H156.634L157.596 52.5925H156.814L153.88 44.85V44.7685H155.689L158.052 51.1255H158.15L160.53 44.7685Z" fill="white"/>
</svg>
